<?xml version="1.0" encoding="UTF-8"?>
<svg id="_레이어_2" data-name="레이어 2" xmlns="http://www.w3.org/2000/svg" viewBox="0 0 426.99 558.07">
  <defs>
    <style>
      .cls-1 {
        stroke-width: 24px;
      }

      .cls-1, .cls-2 {
        fill: none;
        stroke:rgb(56, 56, 56);
        stroke-miterlimit: 10;
      }

      .cls-3 {
        fill:rgb(56, 56, 56);
      }

      .cls-2 {
        stroke-width: 34px;
      }
    </style>
  </defs>
  <path class="cls-3" d="M330.33,187.86c-5.52-44.97-39.99-82.42-85.62-88-42.44-5.19-86.38,26.05-96.5,67.4-11.4,46.57,18.84,102.66,66.51,114.03,25.74,6.14,51.48-.55,70.83-18.56,8.74-8.13,15.78-18.03,22.74-27.67,7.37-10.2,14.59-20.51,21.65-30.92,14.14-20.82,27.67-42.05,40.57-63.65,6.3-10.54,13.06-21.09,18.48-32.11,3.75-7.61,5.07-15.66,2.14-23.79-2.06-5.73-5.38-11.03-8.76-16.07-12.45-18.55-28.75-34.26-47.84-45.89-20.81-12.68-43.98-19.28-68.13-21.46-47.22-4.27-97.96,2.69-137.47,30.38-36.02,25.24-62.44,62.45-74.19,104.88-13.14,47.43-8.68,99.31,10.01,144.62,9.89,23.99,22.63,46.59,33.87,69.95s19.69,43.24,28.67,67.37c4.41,11.85,8.54,23.81,12.43,35.85,2.38,7.37,8.94,12.85,16.87,12.85h162.83c9.15,0,17.92-8.05,17.5-17.5-.42-9.48-7.69-17.5-17.5-17.5h-162.83c5.62,4.28,11.25,8.57,16.87,12.85-14.45-44.74-32.52-88.32-53.87-130.21-10.52-20.65-20.72-39.4-27.39-59.92-3.29-10.1-5.84-20.45-7.62-30.92-.1-.56-1.1-7.23-.68-4.1-.39-2.92-.69-5.86-.94-8.8-.46-5.28-.71-10.58-.77-15.89s.1-10.59.46-15.87c.16-2.34.36-4.69.6-7.02-.04.39.62-5.34.31-2.92-.18,1.46.47-3.12.58-3.77,1.76-10.72,4.42-21.28,8.04-31.52.78-2.22,1.64-4.41,2.48-6.61,1.2-3.11.21-.55-.06.06.49-1.14.99-2.27,1.51-3.4,1.96-4.29,4.1-8.5,6.4-12.61,2.19-3.9,4.53-7.71,7.02-11.43,1.1-1.65,2.24-3.28,3.4-4.9.58-.81,1.18-1.6,1.76-2.4,2.39-3.3-1.45,1.71.91-1.17,5.83-7.11,12.03-13.84,18.87-20,1.65-1.49,3.34-2.95,5.05-4.37.91-.76,5.08-3.98,2.27-1.87,3.96-2.96,8.01-5.78,12.2-8.38,3.56-2.21,7.21-4.28,10.94-6.19,1.97-1.01,3.97-1.98,5.99-2.91.9-.41,1.8-.8,2.7-1.21-3.66,1.65.84-.31,1.29-.48,9.29-3.6,18.94-6.17,28.75-7.89,1.23-.22,2.47-.41,3.71-.61,5.95-.99-1.64.16,1.87-.27,2.8-.35,5.61-.63,8.43-.87,5.94-.51,11.9-.81,17.86-.98,11.57-.33,23.17-.19,34.68,1.09,3.58.4-4.08-.71,2.03.26,1.27.2,2.54.41,3.8.64,2.65.48,5.28,1.04,7.89,1.68,4.68,1.15,9.3,2.56,13.82,4.23,1.1.41,6.1,2.48,2.88,1.07,2.09.92,4.16,1.88,6.21,2.9,4.32,2.15,8.52,4.53,12.58,7.14,1.92,1.23,3.82,2.52,5.67,3.84,1.03.74,2.06,1.49,3.07,2.25-.55-.42-2.5-2.04.05.08,3.52,2.93,6.94,5.93,10.19,9.16s6.25,6.65,9.2,10.15c2.14,2.54.51.6.09.04.77,1.01,1.52,2.03,2.26,3.06,1.48,2.06,2.89,4.17,4.24,6.32,1.22,1.94,2.32,3.93,3.49,5.9,1.85,3.11.2.7.23.08.05-1.06.13-2.22.16-3.29l.66-1.34c-.34.69-.69,1.37-1.07,2.04-.72,1.33-1.48,2.64-2.23,3.96-1.55,2.74-3.11,5.47-4.68,8.2-5.65,9.81-11.43,19.55-17.33,29.22-11.97,19.59-24.47,38.87-37.46,57.8-6.54,9.53-13.19,18.98-20,28.31-1.29,1.77-2.59,3.53-3.91,5.28,1.83-2.41-.34.42-.81,1-.69.85-1.38,1.7-2.09,2.54-3.34,3.96-6.93,7.64-10.82,11.07-2.52,2.22-.87.73-.26.28-1.09.8-2.2,1.56-3.34,2.28-2.05,1.3-4.18,2.49-6.4,3.49,2.94-1.32-2.29.69-3.35.99-1.29.36-2.59.67-3.9.94-1.41.29-3.48.49-.9.23-2.68.26-5.36.37-8.05.29-1.08-.03-2.15-.12-3.23-.18-.69-.04-3.36-.54-.17.04-2.4-.43-4.77-.91-7.12-1.57-1.04-.29-2.07-.61-3.1-.95-.77-.25-1.54-.52-2.29-.81,1.42.65,1.57.72.44.21-4.04-1.93-7.82-4.12-11.47-6.71,2.74,1.94.01,0-.65-.57-.97-.82-1.92-1.67-2.84-2.54-1.85-1.75-3.61-3.6-5.28-5.52-.67-.77-1.31-1.56-1.96-2.35,2,2.45.33.4-.03-.13-1.3-1.91-2.59-3.81-3.77-5.79s-2.28-4.01-3.3-6.09c-.45-.92-.86-1.86-1.31-2.79,1.65,3.36-.4-1.07-.56-1.52-1.79-4.85-2.97-9.79-4.07-14.83-.09-.42-.51-3.42-.17-.68-.15-1.18-.25-2.38-.33-3.58-.2-2.98-.24-5.98-.07-8.97-.01.24.41-5.36.12-2.24-.27,2.84.31-1.61.34-1.79.36-1.81.8-3.6,1.31-5.37.26-.88.53-1.76.83-2.63.03-.09,1.52-4.37.58-1.78-.79,2.2.25-.54.5-1.07.59-1.25,1.22-2.48,1.88-3.69,1-1.82,2.07-3.59,3.23-5.32.76-1.14,3.77-4.83,1.38-2.03,3.03-3.55,6.18-6.92,9.73-9.95.71-.61,1.44-1.19,2.16-1.78-2.75,2.26-.84.65-.19.21,1.74-1.18,3.46-2.36,5.27-3.44s3.64-2.08,5.52-3.01c.83-.41,1.7-.77,2.53-1.19-3.71,1.85.3-.08.99-.33,3.96-1.43,7.98-2.36,12.09-3.23.93-.2,3.31-.24-.52.03.92-.07,1.85-.19,2.77-.25,2.32-.16,4.65-.21,6.97-.12,1.17.04,2.35.12,3.52.23.61.05,3.58.54,1.18.1-2.83-.51,1.71.37,1.84.39.92.19,1.83.39,2.74.62,2.04.5,4.06,1.1,6.05,1.78.88.3,1.75.67,2.64.96,1.19.47.88.32-.94-.43.64.28,1.28.57,1.91.87,3.6,1.7,7.08,3.67,10.39,5.89.98.65,1.91,1.37,2.88,2.03,2.11,1.43-2.09-1.84-.19-.14s3.94,3.36,5.8,5.19c1.35,1.32,2.65,2.69,3.91,4.1.63.7,1.22,1.44,1.85,2.15,3.03,3.36-1.26-1.92.33.36,2.58,3.69,5.05,7.39,7.13,11.4.87,1.67,1.68,3.38,2.43,5.11-1.5-3.5-.27-.49.06.42.4,1.11.78,2.22,1.13,3.35.56,1.8,1.06,3.62,1.48,5.46.27,1.19,1.37,8.27.81,3.72,1.11,9.05,7.25,17.96,17.5,17.5,8.53-.38,18.69-7.77,17.5-17.5h0Z"/>
  <path class="cls-1" d="M288.46,516.62c16.26-.48-22.33,29.45-49.87,29.45s-66.13-29.77-49.87-29.45c60.77,1.19,59.74,1.19,99.74,0Z"/>
  <rect class="cls-2" x="147.35" y="455.01" width="182.47" height="52.22" rx="18.27" ry="18.27"/>
  <path class="cls-3" d="M386.92,231.68c-5.44,15.79-10.77,31.63-16.49,47.32-5.82,15.95-10.21,27.14-17.68,42.04-13.94,27.79-34.42,51.87-44.01,81.8-4.71,14.73-8.21,31.2-6.8,46.72.82,9.09,7.46,17.95,17.5,17.5,8.77-.39,18.39-7.74,17.5-17.5-.24-2.62-.33-5.23-.26-7.86.05-1.66.15-3.31.29-4.96.11-1.28.76-5.43.16-1.99,1.15-6.65,2.52-13.2,4.45-19.67.87-2.9,1.81-5.78,2.86-8.63.5-1.36,1.04-2.7,1.56-4.05-1.32,3.47.4-.87.96-2.05,3.25-6.81,7.17-13.32,11.14-19.74,8.24-13.31,16.92-26.29,24.04-40.26,7.71-15.13,14.18-30.92,20.11-46.82,6.49-17.39,12.37-35.01,18.42-52.56,2.99-8.66-3.41-19.52-12.22-21.53-9.74-2.22-18.33,2.95-21.53,12.22h0Z"/>
  <path class="cls-3" d="M317.99,351.23c-33.76,7.94-40.2,14.38-48.14,48.14-7.94-33.76-14.38-40.2-48.14-48.14,33.76-7.94,40.2-14.38,48.14-48.14,7.94,33.76,14.38,40.2,48.14,48.14Z"/>
  <path class="cls-3" d="M78.47,59.79c-27.52,6.47-32.76,11.72-39.24,39.24-6.47-27.52-11.72-32.76-39.24-39.24,27.52-6.47,32.76-11.72,39.24-39.24,6.47,27.52,11.72,32.76,39.24,39.24Z"/>
  <path class="cls-3" d="M426.99,426.97c-24.39,5.74-29.05,10.39-34.78,34.78-5.74-24.39-10.39-29.05-34.78-34.78,24.39-5.74,29.05-10.39,34.78-34.78,5.74,24.39,10.39,29.05,34.78,34.78Z"/>
</svg>